<svg width="101" height="86" viewBox="0 0 101 86" fill="none" xmlns="http://www.w3.org/2000/svg">
<path d="M29.5191 2.48608V53.3824L51.4059 31.4956C46.2329 20.3933 38.7748 10.5081 29.5191 2.48608C23.6916 7.88175 18.4888 13.9152 14.0088 20.4729L29.5191 37.3292V2.48608Z" fill="#8EE1D1"/>
<path d="M20.7366 62.1577L2.92383 50.0476L20.7366 62.1577Z" fill="white"/>
<path d="M62.5639 57.3444L78.9204 40.9879C81.2663 38.514 82.5538 35.222 82.5086 31.813C82.4635 28.4039 81.0892 25.1471 78.6786 22.7363C76.2679 20.3254 73.0113 18.9508 69.6022 18.9053C66.1932 18.8599 62.901 20.147 60.4269 22.4927L41.0752 41.8444L56.5511 57.3203" fill="#8EE1D1"/>
<path d="M85.702 57.3547H58.335V83.5189H85.702C89.1716 83.5189 92.4991 82.1406 94.9525 79.6873C97.4059 77.2339 98.7841 73.9064 98.7841 70.4368C98.7841 66.9673 97.4059 63.6398 94.9525 61.1864C92.4991 58.733 89.1716 57.3547 85.702 57.3547Z" fill="#4FC0E8"/>
<path d="M85.6999 55.3729H67.3408L80.3247 42.3891C82.4316 40.2822 83.8665 37.5979 84.4477 34.6755C85.029 31.7531 84.7305 28.724 83.5901 25.9713C82.4497 23.2186 80.5185 20.8659 78.0409 19.2108C75.5632 17.5557 72.6504 16.6725 69.6708 16.673C67.6918 16.6676 65.7313 17.0548 63.9029 17.812C62.0745 18.5693 60.4144 19.6817 59.0187 21.0848L52.0097 28.0937C46.7705 17.7449 39.5558 8.52204 30.7726 0.945498C30.4383 0.670916 30.0228 0.514056 29.5904 0.499146L29.487 0.499146C29.0078 0.509208 28.5485 0.692927 28.1945 1.01616C22.246 6.51141 16.9393 12.6628 12.3757 19.3528C11.109 21.2106 9.9216 23.0908 8.85483 24.9417C8.60483 25.3956 8.54241 25.9294 8.68092 26.4288C8.81944 26.9281 9.14788 27.3535 9.59599 27.6138C10.0441 27.8741 10.5763 27.9487 11.0787 27.8216C11.5811 27.6946 12.0139 27.3759 12.2843 26.9339C12.9116 25.8551 13.5769 24.7642 14.2783 23.675L27.5482 38.0979V52.5621L20.51 59.5986L4.48265 48.7001C4.79421 46.0577 5.3345 43.4473 6.09744 40.8984C6.17614 40.6475 6.20418 40.3835 6.17994 40.1217C6.1557 39.8599 6.07965 39.6055 5.95622 39.3734C5.8328 39.1413 5.66445 38.936 5.46098 38.7695C5.2575 38.603 5.02296 38.4786 4.77098 38.4035C4.519 38.3285 4.25462 38.3043 3.9932 38.3323C3.73179 38.3604 3.47856 38.4401 3.24823 38.5669C3.01791 38.6937 2.81509 38.865 2.65156 39.0709C2.48803 39.2767 2.36707 39.5131 2.29569 39.7661C0.966084 44.1161 0.273 48.6357 0.237987 53.1843C0.154771 59.9485 2.04417 66.5905 5.67522 72.2981C8.21646 76.3286 11.7345 79.652 15.9029 81.9601C20.0713 84.2681 24.755 85.486 29.5198 85.5009C29.6541 85.5008 29.7881 85.4869 29.9196 85.4595C30.2643 85.4836 30.6089 85.5009 30.9657 85.5009H85.6999C89.6951 85.5009 93.5267 83.9138 96.3517 81.0887C99.1768 78.2637 100.764 74.4321 100.764 70.4369C100.764 66.4417 99.1768 62.6101 96.3517 59.7851C93.5267 56.96 89.6951 55.3729 85.6999 55.3729ZM61.8243 23.8904C63.9076 21.8185 66.7274 20.6572 69.6655 20.6612C72.6037 20.6651 75.4204 21.8339 77.4981 23.9114C79.5758 25.9889 80.7449 28.8054 80.7492 31.7436C80.7534 34.6817 79.5924 37.5017 77.5208 39.5852L61.733 55.3729H57.409L43.8754 41.8393L61.8243 23.8904ZM56.3509 81.5354H30.9674C28.8894 81.5334 26.8537 80.9487 25.0914 79.8478C23.3291 78.7468 21.9108 77.1737 20.9977 75.3072C20.9822 75.2761 20.9667 75.2451 20.9512 75.2141C20.9012 75.109 20.8529 75.0004 20.8064 74.8935C20.7754 74.8246 20.7444 74.7539 20.7151 74.6816C20.6858 74.6092 20.6599 74.542 20.6323 74.473C20.5893 74.3627 20.5462 74.2507 20.5065 74.1387L20.4755 74.0456C19.6768 71.7061 19.6768 69.1677 20.4755 66.8282C20.4876 66.7971 20.4962 66.7644 20.5083 66.7334C20.5479 66.6214 20.591 66.5111 20.6341 66.4025C20.6616 66.3318 20.6892 66.2612 20.7185 66.1905C20.7478 66.1199 20.7788 66.0509 20.8098 65.9803C20.8581 65.8734 20.9046 65.7649 20.9563 65.6597L21.0011 65.5684C21.9143 63.7014 23.3328 62.1278 25.0954 61.0266C26.858 59.9253 28.8942 59.3404 30.9726 59.3384H56.3509V81.5354ZM41.0681 44.6398L51.8012 55.3712H30.9674C30.7502 55.3712 30.5348 55.3712 30.3194 55.3885L41.0681 44.6398ZM27.5396 7.15652V32.2419L25.3751 29.8895L16.548 20.2955C19.8607 15.6347 23.5354 11.242 27.5379 7.15824L27.5396 7.15652ZM31.5034 37.3241V6.9635C38.7122 13.9093 44.6472 22.0654 49.0386 31.0614L33.2164 46.8836L31.5034 48.5967V37.3241ZM9.01338 70.1577C5.81802 65.1261 4.14693 59.2772 4.20174 53.317L18.0318 62.7128C17.8146 63.0764 17.6182 63.4469 17.4338 63.8226L17.3717 63.9484C17.3028 64.0932 17.239 64.2379 17.1753 64.3827C17.1339 64.4792 17.0908 64.574 17.0495 64.6705C17.0081 64.767 16.9736 64.8601 16.9374 64.9549C16.8788 65.1048 16.8202 65.2547 16.7651 65.4081L16.7237 65.5339C15.628 68.7072 15.628 72.1563 16.7237 75.3296C16.7375 75.3726 16.7513 75.4157 16.7668 75.4588C16.8202 75.6105 16.8771 75.7587 16.9392 75.9086C16.9771 76.0051 17.015 76.1016 17.0529 76.1964C17.0908 76.2912 17.1339 76.3843 17.1753 76.479C17.239 76.6255 17.3045 76.772 17.3734 76.9185L17.4338 77.0391C17.7393 77.6679 18.0889 78.2743 18.4799 78.8538C18.3747 78.8004 18.2696 78.7487 18.1662 78.6936C14.4296 76.6851 11.2769 73.7432 9.01511 70.1543L9.01338 70.1577ZM85.7033 81.532H60.3164V72.4205H78.5582C79.0696 72.3992 79.5529 72.1811 79.9071 71.8117C80.2614 71.4424 80.4592 70.9504 80.4592 70.4386C80.4592 69.9269 80.2614 69.4349 79.9071 69.0656C79.5529 68.6962 79.0696 68.4781 78.5582 68.4568H60.3164V59.3401H85.7016C88.6451 59.3401 91.468 60.5094 93.5494 62.5908C95.6308 64.6722 96.8001 67.4951 96.8001 70.4386C96.8001 73.3821 95.6308 76.2051 93.5494 78.2865C91.468 80.3678 88.6451 81.5371 85.7016 81.5371L85.7033 81.532Z" fill="#3F3F79"/>
<path d="M66.1093 25.2554C66.2118 25.69 66.4579 26.0774 66.8079 26.3548C67.1579 26.6323 67.5912 26.7835 68.0378 26.784C68.191 26.7835 68.3437 26.7655 68.4928 26.7306C68.7464 26.6709 68.9858 26.5619 69.1972 26.4098C69.4087 26.2577 69.5881 26.0654 69.7253 25.8439C69.8624 25.6224 69.9546 25.3761 69.9965 25.119C70.0385 24.8619 70.0294 24.599 69.9697 24.3454L69.9542 24.2765C69.8223 23.7768 69.5006 23.3483 69.0575 23.0823C68.6145 22.8162 68.0851 22.7336 67.5821 22.8519C67.079 22.9703 66.642 23.2803 66.3641 23.716C66.0861 24.1517 65.9892 24.6786 66.0939 25.1847L66.1093 25.2554Z" fill="#3F3F79"/>
<path d="M4.98244 33.2104C5.11435 33.7101 5.43607 34.1386 5.87911 34.4046C6.32216 34.6707 6.85154 34.7533 7.3546 34.635C7.85766 34.5166 8.29467 34.2066 8.57261 33.7709C8.85056 33.3352 8.94749 32.8083 8.84279 32.3022L8.82728 32.2333C8.69536 31.7336 8.37365 31.3051 7.9306 31.0391C7.48756 30.773 6.95817 30.6904 6.45511 30.8087C5.95205 30.9271 5.51504 31.2371 5.2371 31.6728C4.95915 32.1084 4.86222 32.6354 4.96693 33.1415L4.98244 33.2104Z" fill="#3F3F79"/>
<path d="M73.0975 38.8147C73.3581 38.8153 73.6162 38.7642 73.857 38.6645C74.0978 38.5649 74.3164 38.4185 74.5004 38.234C76.2135 36.7608 77.3124 34.6991 77.5801 32.4555C77.6125 31.6141 77.4768 30.7747 77.1809 29.9864C76.885 29.198 76.4348 28.4767 75.8567 27.8644C75.5114 27.4673 75.0224 27.2235 74.4974 27.1868C73.9723 27.1502 73.4542 27.3235 73.0571 27.6689C72.6599 28.0142 72.4161 28.5031 72.3794 29.0281C72.3428 29.5532 72.5161 30.0713 72.8615 30.4685C73.5215 31.225 74.6262 32.4934 71.6913 35.4283C71.4136 35.7055 71.2243 36.0589 71.1476 36.4437C71.0709 36.8285 71.1102 37.2275 71.2604 37.5899C71.4107 37.9524 71.6651 38.2622 71.9916 38.4799C72.318 38.6976 72.7017 38.8136 73.0941 38.813L73.0975 38.8147Z" fill="#3F3F79"/>
</svg>
