<svg id="Capa_1" enable-background="new 0 0 533.876 533.876" height="512" viewBox="0 0 533.876 533.876" width="512" xmlns="http://www.w3.org/2000/svg"><g><path d="m431.689 273.194c-11.518 0-20.855-9.337-20.855-20.855v-127.212c0-45.997-37.421-83.418-83.418-83.418h-98.016c-11.518 0-20.855-9.337-20.855-20.855s9.337-20.854 20.855-20.854h98.016c68.995 0 125.127 56.132 125.127 125.127v127.213c0 11.518-9.336 20.854-20.854 20.854zm-93.846 239.827c0-11.518-9.337-20.855-20.855-20.855h-87.588c-11.518 0-20.855 9.337-20.855 20.855s9.337 20.854 20.855 20.854h87.589c11.518.001 20.854-9.336 20.854-20.854zm-171.007 0v-492.166c0-11.518-9.336-20.855-20.854-20.855h-20.855c-68.995 0-125.127 56.132-125.127 125.127v283.622c0 68.995 56.132 125.127 125.127 125.127h20.855c11.518 0 20.854-9.337 20.854-20.855zm-41.709-20.854c-45.997 0-83.418-37.421-83.418-83.418v-283.622c0-45.997 37.421-83.418 83.418-83.418zm332.63 41.709c-20.332 0-39.447-7.918-53.824-22.296l-73.104-73.103c-21.128-21.13-35.391-47.784-41.248-77.085l-11.81-59.085c-1.366-6.837.774-13.904 5.704-18.835 4.93-4.93 11.998-7.072 18.834-5.704l59.085 11.81c29.301 5.856 55.956 20.119 77.085 41.249l73.104 73.103c14.377 14.378 22.294 33.493 22.294 53.826 0 20.331-7.917 39.446-22.295 53.823-14.378 14.378-33.493 22.297-53.825 22.297zm-132.957-209.076 5.68 28.417c4.237 21.197 14.555 40.48 29.841 55.766l73.105 73.103c6.499 6.5 15.141 10.08 24.332 10.08s17.833-3.58 24.331-10.078c6.499-6.499 10.079-15.141 10.079-24.332s-3.58-17.833-10.079-24.331l-73.105-73.105c-15.285-15.286-34.568-25.605-55.766-29.841zm23.471-163.177h-118.871c-11.518 0-20.855-9.337-20.855-20.855s9.337-20.855 20.855-20.855h118.871c11.518 0 20.855 9.337 20.855 20.855s-9.337 20.855-20.855 20.855zm20.854 52.136c0-11.518-9.337-20.855-20.855-20.855h-118.87c-11.518 0-20.855 9.337-20.855 20.855s9.337 20.855 20.855 20.855h118.871c11.518-.001 20.854-9.337 20.854-20.855z"/></g></svg>